<svg version="1.1" id="Layer_1" xmlns="http://www.w3.org/2000/svg" x="0" y="0" viewBox="0 0 24 24" xml:space="preserve">
    <style>.st0{fill:#ffffff}</style>
    <path class="st0" d="M21 8.6h-.9l-3.7.2 3-2.8 2.3-2.3c.2-.2.3-.4.3-.7 0-.6-.5-1-1-1-.3 0-.5.1-.7.3L18 4.6l-2.8 2.9.2-3.7V3c0-.6-.4-1-1-1s-1 .4-1 1v5.8c0 1.1.6 1.7 1.7 1.7H21c.6 0 1-.4 1-1s-.4-.9-1-.9zM8.8 13.5H3c-.6 0-1 .4-1 1s.4 1 1 1h.9l3.7-.2-3 2.7-2.3 2.3c-.2.2-.3.4-.3.7 0 .6.4 1 1 1 .3 0 .5-.1.7-.3L6 19.4l2.8-2.9-.2 3.7v.8c0 .6.4 1 .9 1 .6 0 1-.4 1-1v-5.8c0-1.1-.6-1.7-1.7-1.7z" />
</svg>