<svg version="1.1" id="Layer_1" xmlns="http://www.w3.org/2000/svg" x="0" y="0" viewBox="0 0 24 24" xml:space="preserve">
    <style>.st0{fill:#ffffff}</style>
    <path class="st0" d="M9.5 20.1h-.9l-3.6.2 2.9-2.8 2.3-2.3c.2-.2.3-.4.3-.7 0-.6-.5-1-1-1-.3 0-.5.1-.7.3l-2.3 2.4L3.7 19l.2-3.7v-.9c0-.6-.4-1-1-1s-1 .4-1 1v5.8c.1 1.2.7 1.8 1.8 1.8h5.8c.6 0 1-.4 1-1s-.4-.9-1-.9zM20.3 2h-5.8c-.6 0-1 .4-1 1s.4 1 1 1h.9l3.6-.3-2.9 2.8-2.3 2.3c-.2.2-.3.4-.3.7 0 .6.4 1 1 1 .3 0 .5-.1.7-.3l2.3-2.4L20.3 5l-.2 3.7v.9c0 .6.4 1 .9 1 .6 0 1-.4 1-1V3.7c0-1.1-.6-1.7-1.7-1.7z" />
</svg>